<?xml version="1.0" encoding="utf-8"?>
<!-- Generator: Adobe Illustrator 21.1.0, SVG Export Plug-In . SVG Version: 6.00 Build 0)  -->
<svg version="1.1" id="Layer_1" xmlns="http://www.w3.org/2000/svg" xmlns:xlink="http://www.w3.org/1999/xlink" x="0px" y="0px"
	 viewBox="0 0 52 26.6" style="enable-background:new 0 0 52 26.6;" xml:space="preserve">
<style type="text/css">
	.st0{fill:#D9D9D9;}
</style>
<path id="_x30_6" class="st0" d="M46.1,7.8c-1.3-5.3-6.2-5.6-7.6-5.2C37,1.1,34.5,0,31.9,0c-3.2,0-6,1.5-7.7,3.9
	c-2-1.6-4.9-2.7-7.9-2.7C9.7,1.2,4.2,6.4,3.7,13C1.5,14.2,0,16.6,0,19.3c0,4.1,3.3,7.3,7.3,7.3h28.3c4.2,0,7.5-3.4,7.5-7.5h3.2
	c3.1,0,5.7-2.5,5.7-5.7C52,13.5,52.1,7.8,46.1,7.8z M35.6,23.8H8c-2.7,0-4.8-2-4.8-4.5c0-2.1,1.3-3.9,3.4-4.6
	c0.2-9.9,8.9-10.4,9.9-10.4c2.9,0,5.7,1.4,7.6,3.5c3.7-1.2,8.8,1.6,8.2,7.2c1.4-0.6,2.9-0.5,3.3-0.5c2.1,0,4.6,1.8,4.6,4.8
	C40.2,21.8,38.2,23.8,35.6,23.8z M46.4,17h-3.6c-0.6-2.2-2.4-5.4-7.6-5.4c-1.4-5.6-5.8-7-8.5-7.1c2-2,4.8-2.2,5.3-2.2
	c2.2,0,4.3,1.1,5.7,2.6c2.8-0.9,6.6,1.2,6.2,5.4C45,9.9,46.1,10,46.4,10c1.6,0,3.4,1.4,3.4,3.6C49.8,15.5,48.3,17,46.4,17z"/>
</svg>
