<?xml version="1.0" encoding="utf-8"?>
<!-- Generator: Adobe Illustrator 21.1.0, SVG Export Plug-In . SVG Version: 6.00 Build 0)  -->
<svg version="1.1" id="Layer_1" xmlns="http://www.w3.org/2000/svg" xmlns:xlink="http://www.w3.org/1999/xlink" x="0px" y="0px"
	 viewBox="0 0 40.4 41" style="enable-background:new 0 0 40.4 41;" xml:space="preserve">
<style type="text/css">
	.st0{fill:#FFE169;}
</style>
<g id="_x30_1">
	<path class="st0" d="M22,1.8c0-1-0.8-1.8-1.8-1.8s-1.8,0.8-1.8,1.8v4c0,1,0.8,1.8,1.8,1.8S22,6.8,22,5.8V1.8z"/>
	<path class="st0" d="M7.9,6.1c-0.7-0.7-1.8-0.7-2.5,0s-0.7,1.8,0,2.5l2.8,2.8c0.7,0.7,1.8,0.7,2.5,0s0.7-1.8,0-2.5L7.9,6.1z"/>
	<path class="st0" d="M1.8,18.4c-1,0-1.8,0.8-1.8,1.8S0.8,22,1.8,22h4c1,0,1.8-0.8,1.8-1.8s-0.8-1.8-1.8-1.8
		C5.8,18.4,1.8,18.4,1.8,18.4z"/>
	<path class="st0" d="M5.4,32.9c-0.7,0.7-0.7,1.8,0,2.5s1.8,0.7,2.5,0l2.8-2.8c0.7-0.7,0.7-1.8,0-2.5s-1.8-0.7-2.5,0L5.4,32.9z"/>
	<path class="st0" d="M18.4,39.2c0,1,0.8,1.8,1.8,1.8s1.8-0.8,1.8-1.8v-4c0-1-0.8-1.8-1.8-1.8s-1.8,0.8-1.8,1.8V39.2z"/>
	<path class="st0" d="M32.5,35.5c0.7,0.7,1.8,0.7,2.5,0s0.7-1.8,0-2.5l-2.8-2.8c-0.7-0.7-1.8-0.7-2.5,0s-0.7,1.8,0,2.5L32.5,35.5z"
		/>
	<path class="st0" d="M38.6,22.6c1,0,1.8-0.8,1.8-1.8S39.6,19,38.6,19h-4c-1,0-1.8,0.8-1.8,1.8s0.8,1.8,1.8,1.8
		C34.6,22.6,38.6,22.6,38.6,22.6z"/>
	<path class="st0" d="M35,8.6c0.7-0.7,0.7-1.8,0-2.5s-1.8-0.7-2.5,0l-2.8,2.8c-0.7,0.7-0.7,1.8,0,2.5s1.8,0.7,2.5,0L35,8.6z"/>
	<path class="st0" d="M20.2,9.7c-6.1,0-11.1,5-11.1,11.1S14.1,32,20.2,32s11.1-5,11.1-11.1C31.3,14.7,26.4,9.7,20.2,9.7z M20.2,28.4
		c-4.2,0-7.6-3.4-7.6-7.6s3.4-7.6,7.6-7.6s7.6,3.4,7.6,7.6S24.4,28.4,20.2,28.4z"/>
</g>
</svg>
