<?xml version="1.0" encoding="utf-8"?>
<!-- Generator: Adobe Illustrator 21.1.0, SVG Export Plug-In . SVG Version: 6.00 Build 0)  -->
<svg version="1.1" id="Layer_1" xmlns="http://www.w3.org/2000/svg" xmlns:xlink="http://www.w3.org/1999/xlink" x="0px" y="0px"
	 viewBox="0 0 43.3 25.6" style="enable-background:new 0 0 43.3 25.6;" xml:space="preserve">
<style type="text/css">
	.st0{fill:#D9D9D9;}
</style>
<path id="_x30_4" class="st0" d="M35.8,25.6c4.2,0,7.6-3.4,7.6-7.6c0,0,0-7.6-7.9-7.6C33.7,3.3,27.1,3,25.2,3.5
	c-2-2-5.4-3.5-8.8-3.5C9.7,0,4.2,5.2,3.7,11.8C1.5,13.1,0,15.5,0,18.2c0,4.1,3.3,7.4,7.4,7.4H35.8L35.8,25.6z M8,22.7
	c-2.8,0-4.8-2-4.8-4.6c0-2.1,1.3-3.9,3.4-4.6C6.8,3.6,15.6,3,16.6,3c2.9,0,5.7,1.4,7.6,3.5c3.7-1.2,8.8,1.6,8.3,7.2
	c1.5-0.6,2.9-0.5,3.3-0.5c2.1,0,4.6,1.8,4.6,4.8c0,2.5-2.1,4.6-4.6,4.6"/>
</svg>
