<?xml version="1.0" encoding="utf-8"?>
<!-- Generator: Adobe Illustrator 21.1.0, SVG Export Plug-In . SVG Version: 6.00 Build 0)  -->
<svg version="1.1" id="Layer_1" xmlns="http://www.w3.org/2000/svg" xmlns:xlink="http://www.w3.org/1999/xlink" x="0px" y="0px"
	 viewBox="0 0 26.6 28.5" style="enable-background:new 0 0 26.6 28.5;" xml:space="preserve">
<style type="text/css">
	.st0{fill:#FFE169;}
</style>
<path id="_x30_2" class="st0" d="M0.1,12.6c-0.8,7.9,5,15,12.9,15.8c4.9,0.5,9.5-1.6,12.5-5c2.8-3.2-0.3-3.2-1.5-3.3
	c-11.8-1.6-13.7-13.2-11.9-18c0.6-2.3-0.6-2.3-1.6-2C10.6,0.1,1,2.7,0.1,12.6z M13.3,25.1C7.2,24.4,2.8,19,3.4,12.9
	c0.4-3.5,2.3-6.5,5-8.2c-1.3,7.8,4.6,17,13.1,17.9C19.3,24.2,16.2,25.4,13.3,25.1z"/>
</svg>
