<?xml version="1.0" encoding="utf-8"?>
<!-- Generator: Adobe Illustrator 21.1.0, SVG Export Plug-In . SVG Version: 6.00 Build 0)  -->
<svg version="1.1" id="Layer_1" xmlns="http://www.w3.org/2000/svg" xmlns:xlink="http://www.w3.org/1999/xlink" x="0px" y="0px"
	 viewBox="0 0 43.3 36.6" style="enable-background:new 0 0 43.3 36.6;" xml:space="preserve">
<style type="text/css">
	.st0{fill:#7DCFE5;}
	.st1{fill:#D9D9D9;}
</style>
<g id="_x30_9">
	<path class="st0" d="M32.9,31.4c0.8,0,1.5-0.7,1.5-1.5s-0.7-1.5-1.5-1.5H5.1c-0.8,0-1.5,0.7-1.5,1.5s0.7,1.5,1.5,1.5H32.9z"/>
	<path class="st0" d="M38.4,36.6c0.8,0,1.5-0.7,1.5-1.5s-0.7-1.5-1.5-1.5H10.6c-0.8,0-1.5,0.7-1.5,1.5s0.7,1.5,1.5,1.5H38.4z"/>
	<path class="st1" d="M35.7,25.8c4.2,0,7.6-3.4,7.6-7.6c0,0,0-7.6-7.9-7.6c-1.8-7-8.4-7.4-10.2-6.9c-2-2-5.4-3.5-8.8-3.5
		C9.7,0.3,4.2,5.4,3.7,11.9C1.5,13.3,0,15.6,0,18.4c0,4.1,3.3,7.4,7.4,7.4H35.7L35.7,25.8z M8,22.7c-2.7,0-4.8-2-4.8-4.6
		c0-2.1,1.3-3.9,3.4-4.6c0.3-9.9,9-10.4,9.9-10.4c2.9,0,5.7,1.4,7.6,3.5c3.7-1.2,8.8,1.6,8.2,7.2c1.5-0.6,2.9-0.5,3.3-0.5
		c2.1,0,4.6,1.8,4.6,4.8c0,2.5-2.1,4.6-4.6,4.6C35.7,22.7,8,22.7,8,22.7z"/>
</g>
</svg>
