<?xml version="1.0" encoding="utf-8"?>
<!-- Generator: Adobe Illustrator 21.1.0, SVG Export Plug-In . SVG Version: 6.00 Build 0)  -->
<svg version="1.1" id="Layer_1" xmlns="http://www.w3.org/2000/svg" xmlns:xlink="http://www.w3.org/1999/xlink" x="0px" y="0px"
	 viewBox="0 0 54.7 33.5" style="enable-background:new 0 0 54.7 33.5;" xml:space="preserve">
<style type="text/css">
	.st0{display:none;}
	.st1{display:inline;fill:#83A5B3;}
	.st2{fill:#FFE169;}
	.st3{fill:#D9D9D9;}
</style>
<g id="_x30_3" class="st0">
	<path class="st1" d="M37.3,6.3c0.8,0,1.5-0.7,1.5-1.5V1.5c0-0.8-0.7-1.5-1.5-1.5c-0.8,0-1.5,0.7-1.5,1.5v3.3
		C35.8,5.7,36.4,6.3,37.3,6.3z"/>
	<path class="st1" d="M27.3,9.6c0.6,0.6,1.5,0.6,2.1,0C30,9,30,8,29.4,7.5L27,5.1c-0.6-0.6-1.5-0.6-2.1,0s-0.6,1.5,0,2.1L27.3,9.6z"
		/>
	<path class="st1" d="M47.2,25.3c-0.6-0.6-1.5-0.6-2.1,0c-0.6,0.6-0.6,1.5,0,2.1l2.4,2.4c0.6,0.6,1.5,0.6,2.1,0
		c0.6-0.6,0.6-1.5,0-2.1L47.2,25.3z"/>
	<path class="st1" d="M53.2,16h-3.3c-0.8,0-1.5,0.7-1.5,1.5c0,0.8,0.7,1.5,1.5,1.5h3.3c0.8,0,1.5-0.7,1.5-1.5
		C54.7,16.6,54,16,53.2,16z"/>
	<path class="st1" d="M47.2,9.6l2.4-2.4c0.6-0.6,0.6-1.5,0-2.1c-0.6-0.6-1.5-0.6-2.1,0l-2.4,2.4c-0.6,0.6-0.6,1.5,0,2.1
		C45.7,10.2,46.6,10.2,47.2,9.6z"/>
	<path class="st1" d="M46.6,17.5c0-5.2-4.2-9.3-9.3-9.3c-3,0-5.7,1.4-7.4,3.7c-1.9-0.7-3.7-0.6-4.6-0.4c-2-2-5.4-3.5-8.8-3.5
		c-6.7,0-12.3,5.2-12.8,11.8C1.5,21,0,23.4,0,26.1c0,4.1,3.3,7.4,7.4,7.4h28.4c4.2,0,7.6-3.4,7.6-7.6c0,0,0-0.5-0.1-1.3
		C45.3,22.9,46.6,20.3,46.6,17.5z M35.8,30.7H8c-2.8,0-4.8-2-4.8-4.6c0-2.1,1.3-4,3.4-4.6c0.2-10,9-10.5,10-10.5
		c2.9,0,5.8,1.4,7.6,3.5c3.7-1.2,8.8,1.7,8.3,7.2c1.5-0.6,2.9-0.5,3.3-0.5c2.1,0,4.6,1.8,4.6,4.8C40.4,28.6,38.4,30.7,35.8,30.7z
		 M35.5,18.4c-0.6-2.4-1.7-4-3-5.1c1.2-1.3,2.9-2.2,4.8-2.2c3.5,0,6.4,2.8,6.4,6.4c0,1.6-0.6,3-1.5,4.1
		C39.9,18.1,35.5,18.4,35.5,18.4z"/>
</g>
<g id="_x31_1">
	<path class="st2" d="M38.9,1.5c0-0.8-0.7-1.5-1.5-1.5s-1.5,0.7-1.5,1.5v3.3c0,0.8,0.7,1.5,1.5,1.5s1.5-0.7,1.5-1.5V1.5z"/>
	<path class="st2" d="M27.3,5.1c-0.6-0.6-1.5-0.6-2.1,0s-0.6,1.5,0,2.1l2.3,2.3c0.6,0.6,1.5,0.6,2.1,0s0.6-1.5,0-2.1L27.3,5.1z"/>
	<path class="st2" d="M49.7,7.2c0.6-0.6,0.6-1.5,0-2.1s-1.5-0.6-2.1,0l-2.3,2.3c-0.6,0.6-0.6,1.5,0,2.1s1.5,0.6,2.1,0L49.7,7.2z"/>
	<path class="st2" d="M47.3,25.2c-0.6-0.6-1.5-0.6-2.1,0s-0.6,1.5,0,2.1l2.3,2.3c0.6,0.6,1.5,0.6,2.1,0s0.6-1.5,0-2.1L47.3,25.2z"/>
	<path class="st2" d="M53.2,15.9h-3.3c-0.8,0-1.5,0.7-1.5,1.5s0.7,1.5,1.5,1.5h3.3c0.8,0,1.5-0.7,1.5-1.5
		C54.7,16.5,54.1,15.9,53.2,15.9z"/>
	<path class="st2" d="M42.2,25.2c2.7-1.6,4.5-4.6,4.5-7.9c0-5.2-4.1-9.3-9.2-9.3c-3.4,0-6.4,1.9-8,4.7 M37.4,23.6 M31.6,14.9
		c0.9-2.3,3.2-4,5.9-4c3.5,0,6.3,2.8,6.3,6.3c0,2.1-1,4-2.6,5.1c-0.2,0.2-0.5,0.3-0.8,0.5"/>
</g>
<path id="_x30_4" class="st3" d="M35.8,33.5c4.2,0,7.6-3.4,7.6-7.6c0,0,0-7.6-7.9-7.6c-1.8-7.1-8.4-7.4-10.3-6.9
	c-2-2-5.4-3.5-8.8-3.5c-6.7,0-12.2,5.2-12.7,11.8C1.5,21,0,23.4,0,26.1c0,4.1,3.3,7.4,7.4,7.4H35.8L35.8,33.5z M8,30.6
	c-2.8,0-4.8-2-4.8-4.6c0-2.1,1.3-3.9,3.4-4.6c0.2-9.9,9-10.5,10-10.5c2.9,0,5.7,1.4,7.6,3.5c3.7-1.2,8.8,1.6,8.3,7.2
	c1.5-0.6,2.9-0.5,3.3-0.5c2.1,0,4.6,1.8,4.6,4.8c0,2.5-2.1,4.6-4.6,4.6"/>
</svg>
