<?xml version="1.0" encoding="utf-8"?>
<!-- Generator: Adobe Illustrator 21.1.0, SVG Export Plug-In . SVG Version: 6.00 Build 0)  -->
<svg version="1.1" id="Layer_1" xmlns="http://www.w3.org/2000/svg" xmlns:xlink="http://www.w3.org/1999/xlink" x="0px" y="0px"
	 viewBox="0 0 54.4 42.3" style="enable-background:new 0 0 54.4 42.3;" xml:space="preserve">
<style type="text/css">
	.st0{fill:#FFE169;}
	.st1{fill:#7DCFE5;}
	.st2{fill:#D9D9D9;}
</style>
<g id="_x31_1">
	<path class="st0" d="M38.6,1.5c0-0.8-0.7-1.5-1.5-1.5s-1.5,0.7-1.5,1.5v3.3c0,0.8,0.7,1.5,1.5,1.5s1.5-0.7,1.5-1.5V1.5z"/>
	<path class="st0" d="M27,5.1c-0.6-0.6-1.5-0.6-2.1,0s-0.6,1.5,0,2.1l2.3,2.3c0.6,0.6,1.5,0.6,2.1,0s0.6-1.5,0-2.1L27,5.1z"/>
	<path class="st0" d="M49.4,7.2c0.6-0.6,0.6-1.5,0-2.1s-1.5-0.6-2.1,0L45,7.4c-0.6,0.6-0.6,1.5,0,2.1s1.5,0.6,2.1,0L49.4,7.2z"/>
	<path class="st0" d="M47,25.2c-0.6-0.6-1.5-0.6-2.1,0s-0.6,1.5,0,2.1l2.3,2.3c0.6,0.6,1.5,0.6,2.1,0s0.6-1.5,0-2.1L47,25.2z"/>
	<path class="st0" d="M52.9,15.9h-3.3c-0.8,0-1.5,0.7-1.5,1.5s0.7,1.5,1.5,1.5h3.3c0.8,0,1.5-0.7,1.5-1.5
		C54.4,16.5,53.8,15.9,52.9,15.9z"/>
	<path class="st1" d="M16.2,31.3c0.4-0.7,0.2-1.6-0.5-2c-0.7-0.4-1.6-0.2-2,0.5L12,32.7c-0.4,0.7-0.2,1.6,0.5,2s1.6,0.2,2-0.5
		L16.2,31.3z"/>
	<path class="st1" d="M23.9,31.3c0.4-0.7,0.2-1.6-0.5-2s-1.6-0.2-2,0.5l-1.7,2.9c-0.4,0.7-0.2,1.6,0.5,2s1.6,0.2,2-0.5L23.9,31.3z"
		/>
	<path class="st1" d="M17,38.7c0.4-0.7,0.2-1.6-0.5-2c-0.7-0.4-1.6-0.2-2,0.5l-1.7,2.9c-0.4,0.7-0.2,1.6,0.5,2s1.6,0.2,2-0.5
		L17,38.7z"/>
	<path class="st1" d="M31.6,31.3c0.4-0.7,0.2-1.6-0.5-2s-1.6-0.2-2,0.5l-1.7,2.9c-0.4,0.7-0.2,1.6,0.5,2s1.6,0.2,2-0.5L31.6,31.3z"
		/>
	<path class="st1" d="M24.8,38.7c0.4-0.7,0.2-1.6-0.5-2s-1.6-0.2-2,0.5l-1.7,2.9c-0.4,0.7-0.2,1.6,0.5,2s1.6,0.2,2-0.5L24.8,38.7z"
		/>
	<path class="st0" d="M41.9,25.2c2.7-1.6,4.5-4.6,4.5-7.9c0-5.2-4.1-9.3-9.2-9.3c-3.4,0-6.4,1.9-8,4.7 M37.2,23.6 M31.3,14.9
		c0.9-2.3,3.2-4,5.9-4c3.5,0,6.3,2.8,6.3,6.3c0,2.1-1,4-2.6,5.1c-0.2,0.2-0.5,0.3-0.8,0.5"/>
</g>
<path class="st2" d="M32.4,21.7c1.5-0.6,2.9-0.5,3.3-0.5c2.1,0,4.6,1.8,4.6,4.8c0,2.5-2.1,4.6-4.6,4.6h-0.2c-0.8,0-1.4,0.6-1.4,1.4
	s0.6,1.4,1.4,1.4h0.2c4.2,0,7.6-3.4,7.6-7.6c0,0,0-7.5-7.9-7.5c-1.8-7.1-8.4-7.4-10.2-6.9c-2-2-5.4-3.5-8.7-3.5
	c-6.8,0-12.3,5.2-12.8,11.8C1.5,21,0,23.3,0,26.1c0,4.1,3.3,7.4,7.3,7.4h1c0.6,0,1.2-0.7,1.2-1.4c0-0.8-0.6-1.4-1.4-1.4H8
	c-2.7,0-4.8-2-4.8-4.6c0-2.1,1.3-3.9,3.4-4.6c0.2-9.9,9-10.4,9.9-10.4c2.9,0,5.7,1.4,7.6,3.5C27.9,13.3,32.9,16.2,32.4,21.7z"/>
</svg>
