<?xml version="1.0" encoding="utf-8"?>
<!-- Generator: Adobe Illustrator 21.1.0, SVG Export Plug-In . SVG Version: 6.00 Build 0)  -->
<svg version="1.1" id="Layer_1" xmlns="http://www.w3.org/2000/svg" xmlns:xlink="http://www.w3.org/1999/xlink" x="0px" y="0px"
	 viewBox="0 0 50.9 42.6" style="enable-background:new 0 0 50.9 42.6;" xml:space="preserve">
<style type="text/css">
	.st0{display:none;fill:#83A5B3;}
	.st1{fill:#7DCFE5;}
	.st2{fill:#FFE169;}
	.st3{fill:#D9D9D9;}
</style>
<g id="_x33_1">
	<path class="st0" d="M28.5,11.6c-1.4-0.3-2.7-0.2-3.3,0c-2-2-5.4-3.5-8.8-3.5c-6.7,0-12.2,5.2-12.7,11.8C1.5,21.2,0,23.6,0,26.3
		c0,4.1,3.3,7.4,7.4,7.4h1c0.7,0,1.2-0.7,1.2-1.4c0-0.8-0.6-1.4-1.4-1.4H8c-2.7,0-4.8-2-4.8-4.6c0-2.1,1.3-3.9,3.4-4.6
		c0.2-9.9,9-10.4,9.9-10.4c2.9,0,5.7,1.4,7.6,3.5c3.7-1.2,8.8,1.6,8.2,7.2c1.5-0.6,2.9-0.5,3.3-0.5c2.1,0,4.6,1.8,4.6,4.8
		c0,2.5-2.1,4.6-4.6,4.6h-0.2c-0.8,0-1.4,0.6-1.4,1.4s0.6,1.4,1.4,1.4h0.2c4.2,0,7.6-3.4,7.6-7.6c0,0,0-1-0.4-2.2
		c2.8-0.5,5.3-2,7.1-4.1c2.4-2.7-0.3-2.6-1.2-2.8c-5.4-0.7-12.7-6.3-10-15.2c0.6-1.9-0.5-1.9-1.3-1.7C37.4,0.1,29,2,28.5,11.6z
		 M35.6,3.9c-1.2,6.4,3.9,14.3,11.1,15.1c-1.4,1.1-3.2,1.9-5.1,2.1c-1.1-1.4-3-2.6-6.2-2.6c-0.7-3-2.3-4.7-4-5.8
		C30.9,7.8,34,4.9,35.6,3.9z"/>
	<path class="st1" d="M16.2,31.5c0.4-0.7,0.2-1.6-0.5-2c-0.7-0.4-1.6-0.2-2,0.5L12,32.9c-0.4,0.7-0.2,1.6,0.5,2s1.6,0.2,2-0.5
		L16.2,31.5z"/>
	<path class="st1" d="M23.9,31.5c0.4-0.7,0.2-1.6-0.5-2s-1.6-0.2-2,0.5l-1.7,2.9c-0.4,0.7-0.2,1.6,0.5,2s1.6,0.2,2-0.5L23.9,31.5z"
		/>
	<path class="st1" d="M17.1,39c0.4-0.7,0.2-1.6-0.5-2c-0.7-0.4-1.6-0.2-2,0.5l-1.7,2.9c-0.4,0.7-0.2,1.6,0.5,2s1.6,0.2,2-0.5
		L17.1,39z"/>
	<path class="st1" d="M31.7,31.5c0.4-0.7,0.2-1.6-0.5-2s-1.6-0.2-2,0.5l-1.7,2.9c-0.4,0.7-0.2,1.6,0.5,2s1.6,0.2,2-0.5L31.7,31.5z"
		/>
	<path class="st1" d="M24.8,39c0.4-0.7,0.2-1.6-0.5-2s-1.6-0.2-2,0.5l-1.7,2.9c-0.4,0.7-0.2,1.6,0.5,2s1.6,0.2,2-0.5L24.8,39z"/>
</g>
<path id="_x30_2" class="st2" d="M41.7,23.9c3.2-0.3,6.2-1.9,8.2-4.2c2.3-2.7-0.3-2.7-1.3-2.8c-9.9-1.3-11.5-11.1-10-15.1
	c0.5-1.9-0.5-1.9-1.3-1.7c0.1,0-8,2.2-8.7,10.5c-0.1,1.4,0,2.8,0.3,4.1 M32.9,16.9c-1.1-1.7-1.7-3.8-1.5-6c0.3-2.9,1.9-5.5,4.2-6.9
	c-1.1,6.5,3.9,14.3,11,15c-1.8,1.3-4.4,2.3-6.9,2.1c-0.4,0-0.8-0.1-1.2-0.2"/>
<path class="st3" d="M32.4,21.9c1.5-0.6,2.9-0.5,3.3-0.5c2.1,0,4.6,1.8,4.6,4.8c0,2.5-2.1,4.6-4.6,4.6h-0.2c-0.8,0-1.4,0.6-1.4,1.4
	s0.6,1.4,1.4,1.4h0.2c4.2,0,7.6-3.4,7.6-7.6c0,0,0-7.5-7.9-7.5c-1.8-7.1-8.4-7.4-10.2-6.9c-2-2-5.4-3.5-8.7-3.5
	c-6.8,0-12.3,5.2-12.8,11.8C1.5,21.2,0,23.5,0,26.3c0,4.1,3.3,7.4,7.3,7.4h1c0.6,0,1.2-0.7,1.2-1.4c0-0.8-0.6-1.4-1.4-1.4H8
	c-2.7,0-4.8-2-4.8-4.6c0-2.1,1.3-3.9,3.4-4.6c0.2-9.9,9-10.4,9.9-10.4c2.9,0,5.7,1.4,7.6,3.5C27.9,13.5,32.9,16.4,32.4,21.9z"/>
</svg>
