<?xml version="1.0" encoding="utf-8"?>
<!-- Generator: Adobe Illustrator 21.1.0, SVG Export Plug-In . SVG Version: 6.00 Build 0)  -->
<svg version="1.1" id="Layer_1" xmlns="http://www.w3.org/2000/svg" xmlns:xlink="http://www.w3.org/1999/xlink" x="0px" y="0px"
	 viewBox="0 0 55.3 42.3" style="enable-background:new 0 0 55.3 42.3;" xml:space="preserve">
<style type="text/css">
	.st0{display:none;}
	.st1{display:inline;fill:#83A5B3;}
	.st2{fill:#D9D9D9;}
	.st3{fill:#FFE169;}
</style>
<g id="_x31_4">
	<g class="st0">
		<path class="st1" d="M39.4,1.5C39.4,0.7,38.8,0,38,0s-1.5,0.7-1.5,1.5v3.3c0,0.8,0.7,1.5,1.5,1.5s1.5-0.7,1.5-1.5L39.4,1.5
			L39.4,1.5z"/>
		<path class="st1" d="M27.8,5.1c-0.6-0.6-1.5-0.6-2.1,0s-0.6,1.5,0,2.1L28,9.5c0.6,0.6,1.5,0.6,2.1,0s0.6-1.5,0-2.1L27.8,5.1z"/>
		<path class="st1" d="M48.1,29.6c0.6,0.6,1.5,0.6,2.1,0s0.6-1.5,0-2.1l-2.3-2.3c-0.6-0.6-1.5-0.6-2.1,0s-0.6,1.5,0,2.1L48.1,29.6z"
			/>
		<path class="st1" d="M53.8,18.8c0.8,0,1.5-0.7,1.5-1.5s-0.7-1.5-1.5-1.5h-3.3c-0.8,0-1.5,0.7-1.5,1.5s0.7,1.5,1.5,1.5H53.8z"/>
		<path class="st1" d="M50.2,7.2c0.6-0.6,0.6-1.5,0-2.1s-1.5-0.6-2.1,0l-2.3,2.3c-0.6,0.6-0.6,1.5,0,2.1s1.5,0.6,2.1,0L50.2,7.2z"/>
		<path class="st1" d="M47.2,17.3c0-5.1-4.1-9.3-9.3-9.3c-3,0-5.7,1.4-7.4,3.7c-1.9-0.7-3.7-0.6-4.6-0.4c-2-2-5.4-3.5-8.7-3.5
			C10.5,7.9,5,13.1,4.5,19.7C2.3,21,0.8,23.3,0.8,26c0,4.1,3.3,7.4,7.3,7.4h2.8c0.7,0,1.2-0.7,1.2-1.4c0-0.8-0.6-1.4-1.4-1.4H8.8
			c-2.7,0-4.8-2-4.8-4.6c0-2.1,1.3-3.9,3.4-4.6c0.2-9.9,9-10.4,9.9-10.4c2.9,0,5.7,1.4,7.6,3.5c3.7-1.2,8.8,1.6,8.2,7.2
			c1.5-0.6,2.9-0.5,3.3-0.5c2.1,0,4.6,1.8,4.6,4.8c0,2.5-2.1,4.6-4.6,4.6h-2.8c-0.8,0-1.4,0.6-1.4,1.4s0.6,1.4,1.4,1.4h2.8
			c4.2,0,7.6-3.4,7.6-7.6c0,0,0-0.6-0.2-1.4C45.9,22.7,47.2,20.2,47.2,17.3z M42.7,21.5c-1.1-1.7-3-3.2-6.6-3.2
			c-0.6-2.4-1.7-4-3-5.1C34.3,11.9,36,11,38,11c3.5,0,6.3,2.8,6.3,6.3C44.3,18.9,43.7,20.4,42.7,21.5z"/>
	</g>
	<path class="st2" d="M20.1,32.5l-1-0.5l0.9-0.5c0.3-0.2,0.4-0.6,0.3-0.9c-0.2-0.3-0.6-0.4-0.9-0.3l-0.9,0.5v-1.1
		c0-0.4-0.3-0.7-0.7-0.7s-0.7,0.3-0.7,0.7v1.1l-0.9-0.5c-0.3-0.2-0.7-0.1-0.9,0.3s-0.1,0.7,0.2,0.9l0.9,0.5l-0.9,0.5
		c-0.3,0.2-0.4,0.6-0.2,0.9c0.2,0.3,0.6,0.4,0.9,0.3l0.9-0.5v1.1c0,0.4,0.3,0.7,0.7,0.7s0.7-0.3,0.7-0.7v-1.1l0.9,0.5
		c0.3,0.2,0.7,0.1,0.9-0.3C20.5,33.1,20.4,32.7,20.1,32.5z"/>
	<path class="st2" d="M28.5,32.5L27.6,32l0.9-0.5c0.3-0.2,0.4-0.6,0.3-0.9c-0.2-0.3-0.6-0.4-0.9-0.3L27,30.8v-1.1
		c0-0.4-0.3-0.7-0.7-0.7s-0.7,0.3-0.7,0.7v1.1l-0.9-0.5c-0.3-0.2-0.7-0.1-0.9,0.3s-0.1,0.7,0.3,0.9L25,32l-0.9,0.5
		c-0.3,0.2-0.4,0.6-0.3,0.9c0.2,0.3,0.6,0.4,0.9,0.3l0.9-0.5v1.1c0,0.4,0.3,0.7,0.7,0.7s0.7-0.3,0.7-0.7v-1.1l0.9,0.5
		c0.3,0.2,0.7,0.1,0.9-0.3C29,33.1,28.9,32.7,28.5,32.5z"/>
	<g id="_x31_1">
		<path class="st3" d="M39.4,1.5c0-0.8-0.7-1.5-1.5-1.5s-1.5,0.7-1.5,1.5v3.3c0,0.8,0.7,1.5,1.5,1.5s1.5-0.7,1.5-1.5V1.5z"/>
		<path class="st3" d="M27.8,5.1c-0.6-0.6-1.5-0.6-2.1,0s-0.6,1.5,0,2.1L28,9.5c0.6,0.6,1.5,0.6,2.1,0s0.6-1.5,0-2.1L27.8,5.1z"/>
		<path class="st3" d="M50.2,7.2c0.6-0.6,0.6-1.5,0-2.1s-1.5-0.6-2.1,0l-2.3,2.3c-0.6,0.6-0.6,1.5,0,2.1s1.5,0.6,2.1,0L50.2,7.2z"/>
		<path class="st3" d="M47.8,25.2c-0.6-0.6-1.5-0.6-2.1,0s-0.6,1.5,0,2.1l2.3,2.3c0.6,0.6,1.5,0.6,2.1,0s0.6-1.5,0-2.1L47.8,25.2z"
			/>
		<path class="st3" d="M53.7,15.9h-3.3c-0.8,0-1.5,0.7-1.5,1.5s0.7,1.5,1.5,1.5h3.3c0.8,0,1.5-0.7,1.5-1.5
			C55.2,16.5,54.6,15.9,53.7,15.9z"/>
		<path class="st3" d="M42.7,25.2c2.7-1.6,4.5-4.6,4.5-7.9c0-5.2-4.1-9.3-9.2-9.3c-3.4,0-6.4,1.9-8,4.7 M32.1,14.9
			c0.9-2.3,3.2-4,5.9-4c3.5,0,6.3,2.8,6.3,6.3c0,2.1-1,4-2.6,5.1c-0.2,0.2-0.5,0.3-0.8,0.5"/>
	</g>
	<path class="st2" d="M33.2,21.7c1.5-0.6,2.9-0.5,3.3-0.5c2.1,0,4.6,1.8,4.6,4.8c0,2.5-2.1,4.6-4.6,4.6h-3.2c-0.8,0-1.4,0.6-1.4,1.4
		s0.6,1.4,1.4,1.4h3.2c4.2,0,7.6-3.4,7.6-7.6c0,0,0-7.5-7.9-7.5c-1.8-7.1-8.4-7.4-10.2-6.9c-2-2-5.4-3.5-8.7-3.5
		C10.5,7.9,5,13.1,4.5,19.7c-2.2,1.3-3.7,3.6-3.7,6.4c0,4.1,3.3,7.4,7.3,7.4h3c0.6,0,1.2-0.7,1.2-1.4c0-0.8-0.6-1.4-1.4-1.4H8.8
		c-2.7,0-4.8-2-4.8-4.6c0-2.1,1.3-3.9,3.4-4.6c0.2-9.9,9-10.4,9.9-10.4c2.9,0,5.7,1.4,7.6,3.5C28.7,13.3,33.7,16.2,33.2,21.7z"/>
	<path class="st2" d="M24.4,39.9l-0.9-0.5l0.9-0.5c0.3-0.2,0.4-0.6,0.3-0.9c-0.2-0.3-0.6-0.4-0.9-0.3l-0.9,0.5v-1.1
		c0-0.4-0.3-0.7-0.7-0.7s-0.7,0.3-0.7,0.7v1.1l-0.9-0.5c-0.3-0.2-0.7-0.1-0.9,0.3c-0.2,0.3-0.1,0.7,0.2,0.9l0.9,0.5l-0.9,0.5
		c-0.3,0.2-0.4,0.6-0.2,0.9c0.2,0.3,0.6,0.4,0.9,0.2l0.9-0.5v1.1c0,0.4,0.3,0.7,0.7,0.7s0.7-0.3,0.7-0.7v-1.1l0.9,0.5
		c0.3,0.2,0.7,0.1,0.9-0.2C24.8,40.5,24.7,40.1,24.4,39.9z"/>
</g>
</svg>
