<?xml version="1.0" encoding="utf-8"?>
<!-- Generator: Adobe Illustrator 21.1.0, SVG Export Plug-In . SVG Version: 6.00 Build 0)  -->
<svg version="1.1" id="Layer_1" xmlns="http://www.w3.org/2000/svg" xmlns:xlink="http://www.w3.org/1999/xlink" x="0px" y="0px"
	 viewBox="0 0 54.4 50.4" style="enable-background:new 0 0 54.4 50.4;" xml:space="preserve">
<style type="text/css">
	.st0{display:none;}
	.st1{display:inline;fill:#83A5B3;}
	.st2{display:inline;}
	.st3{fill:#83A5B3;}
	.st4{fill:#7DCFE5;}
	.st5{fill:#FFE169;}
	.st6{fill:#D9D9D9;}
</style>
<g id="_x31_2">
	<g class="st0">
		<path class="st1" d="M47.2,29.6c0.6,0.6,1.5,0.6,2.1,0s0.6-1.5,0-2.1L47,25.1c-0.6-0.6-1.5-0.6-2.1,0s-0.6,1.5,0,2.1L47.2,29.6z"
			/>
		<g class="st2">
			<path class="st3" d="M38.6,1.5C38.6,0.7,38,0,37.1,0c-0.8,0-1.5,0.7-1.5,1.5v3.3c0,0.8,0.7,1.5,1.5,1.5s1.5-0.7,1.5-1.5V1.5z"/>
			<path class="st3" d="M27,5.1c-0.6-0.6-1.5-0.6-2.1,0s-0.6,1.5,0,2.1l2.3,2.3c0.6,0.6,1.5,0.6,2.1,0s0.6-1.5,0-2.1L27,5.1z"/>
			<path class="st3" d="M52.9,18.8c0.8,0,1.5-0.7,1.5-1.5s-0.7-1.5-1.5-1.5h-3.3c-0.8,0-1.5,0.7-1.5,1.5s0.7,1.5,1.5,1.5H52.9z"/>
			<path class="st3" d="M49.4,7.2c0.6-0.6,0.6-1.5,0-2.1s-1.5-0.6-2.1,0L45,7.4c-0.6,0.6-0.6,1.5,0,2.1s1.5,0.6,2.1,0L49.4,7.2z"/>
			<path class="st3" d="M46.4,17.3c0-5.1-4.1-9.3-9.3-9.3c-3,0-5.7,1.4-7.4,3.7c-1.9-0.7-3.7-0.6-4.6-0.4c-2-2-5.4-3.5-8.7-3.5
				C9.7,7.8,4.2,13,3.7,19.6C1.5,21,0,23.3,0,26.1c0,4.1,3.3,7.4,7.4,7.4h1c0.7,0,1.2-0.7,1.2-1.4c0-0.8-0.6-1.4-1.4-1.4H8
				c-2.7,0-4.8-2-4.8-4.6c0-2.1,1.3-3.9,3.4-4.6c0.2-9.9,9-10.4,9.9-10.4c2.9,0,5.7,1.4,7.6,3.5c3.7-1.2,8.8,1.6,8.2,7.2
				c1.5-0.6,2.9-0.5,3.3-0.5c2.1,0,4.6,1.8,4.6,4.8c0,2.5-2.1,4.6-4.6,4.6h-0.2c-0.8,0-1.4,0.6-1.4,1.4s0.6,1.4,1.4,1.4h0.2
				c4.2,0,7.6-3.4,7.6-7.6c0,0,0-0.6-0.2-1.4C45.1,22.7,46.4,20.2,46.4,17.3z M41.9,21.5c-1.1-1.7-3-3.2-6.6-3.2
				c-0.6-2.4-1.7-4-3-5.1c1.2-1.4,2.9-2.2,4.8-2.2c3.5,0,6.3,2.8,6.3,6.3C43.4,18.9,42.9,20.4,41.9,21.5z"/>
			<path class="st3" d="M47,25.2c-0.6-0.6-1.5-0.6-2.1,0s-0.6,1.5,0,2.1l2.3,2.3c0.6,0.6,1.5,0.6,2.1,0s0.6-1.5,0-2.1L47,25.2z"/>
			<path class="st3" d="M52.9,15.9h-3.3c-0.8,0-1.5,0.7-1.5,1.5s0.7,1.5,1.5,1.5h3.3c0.8,0,1.5-0.7,1.5-1.5
				C54.4,16.5,53.8,15.9,52.9,15.9z"/>
		</g>
	</g>
	<g>
		<path class="st4" d="M16.8,31.3c0.4-0.7,0.2-1.6-0.5-2c-0.7-0.4-1.6-0.2-2,0.5l-1.7,2.9c-0.4,0.7-0.2,1.6,0.5,2s1.6,0.2,2-0.5
			L16.8,31.3z"/>
		<path class="st4" d="M12.3,38.7c0.4-0.7,0.2-1.6-0.5-2s-1.6-0.2-2,0.5L8,40.1c-0.4,0.7-0.2,1.6,0.5,2s1.6,0.2,2-0.5L12.3,38.7z"/>
		<path class="st4" d="M23.8,31.3c0.4-0.7,0.2-1.6-0.5-2s-1.6-0.2-2,0.5l-1.7,2.9c-0.4,0.7-0.2,1.6,0.5,2s1.6,0.2,2-0.5L23.8,31.3z"
			/>
		<path class="st4" d="M19.3,39c0.4-0.7,0.2-1.6-0.5-2s-1.6-0.2-2,0.5L15,40.4c-0.4,0.7-0.2,1.6,0.6,2c0.7,0.4,1.6,0.2,2-0.5
			L19.3,39z"/>
		<path class="st4" d="M14.8,46.8c0.4-0.7,0.2-1.6-0.5-2s-1.6-0.2-2,0.5l-1.7,2.9c-0.4,0.7-0.2,1.6,0.5,2s1.6,0.2,2-0.5L14.8,46.8z"
			/>
		<path class="st4" d="M30.9,31.3c0.4-0.7,0.2-1.6-0.5-2s-1.6-0.2-2,0.5l-1.7,2.9c-0.4,0.7-0.2,1.6,0.5,2s1.6,0.2,2-0.5L30.9,31.3z"
			/>
		<path class="st4" d="M26.3,39c0.4-0.7,0.2-1.6-0.5-2s-1.6-0.2-2,0.5l-1.7,2.9c-0.4,0.7-0.2,1.6,0.5,2s1.6,0.2,2-0.5L26.3,39z"/>
	</g>
</g>
<g>
	<g id="_x31_6">
		<g class="st0">
			<path class="st1" d="M38.6,1.5c0-0.8-0.7-1.5-1.5-1.5s-1.5,0.7-1.5,1.5v3.3c0,0.8,0.7,1.5,1.5,1.5s1.5-0.7,1.5-1.5V1.5z"/>
			<path class="st1" d="M27,5.1c-0.6-0.6-1.5-0.6-2.1,0s-0.6,1.5,0,2.1l2.3,2.3c0.6,0.6,1.5,0.6,2.1,0s0.6-1.5,0-2.1L27,5.1z"/>
			<path class="st1" d="M47.2,29.6c0.6,0.6,1.5,0.6,2.1,0s0.6-1.5,0-2.1L47,25.1c-0.6-0.6-1.5-0.6-2.1,0s-0.6,1.5,0,2.1L47.2,29.6z"
				/>
			<path class="st1" d="M52.9,18.8c0.8,0,1.5-0.7,1.5-1.5s-0.7-1.5-1.5-1.5h-3.3c-0.8,0-1.5,0.7-1.5,1.5s0.7,1.5,1.5,1.5H52.9z"/>
			<path class="st1" d="M49.4,7.2c0.6-0.6,0.6-1.5,0-2.1s-1.5-0.6-2.1,0L45,7.4c-0.6,0.6-0.6,1.5,0,2.1s1.5,0.6,2.1,0L49.4,7.2z"/>
			<path class="st1" d="M46.4,17.3c0-5.1-4.1-9.3-9.3-9.3c-3,0-5.7,1.4-7.4,3.7c-1.9-0.7-3.7-0.6-4.6-0.4c-2-2-5.4-3.5-8.7-3.5
				C9.7,7.8,4.2,13,3.7,19.6C1.5,21,0,23.3,0,26.1c0,4.1,3.3,7.4,7.3,7.4h1c0.7,0,1.2-0.7,1.2-1.4c0-0.8-0.6-1.4-1.4-1.4H8
				c-2.7,0-4.8-2-4.8-4.6c0-2.1,1.3-3.9,3.4-4.6c0.2-9.9,9-10.4,9.9-10.4c2.9,0,5.7,1.4,7.6,3.5c3.7-1.2,8.8,1.6,8.2,7.2
				c1.5-0.6,2.9-0.5,3.3-0.5c2.1,0,4.6,1.8,4.6,4.8c0,2.5-2.1,4.6-4.6,4.6h-0.2c-0.8,0-1.4,0.6-1.4,1.4s0.6,1.4,1.4,1.4h0.2
				c4.2,0,7.6-3.4,7.6-7.6c0,0,0-0.6-0.2-1.4C45.1,22.7,46.4,20.2,46.4,17.3z M41.9,21.5c-1.1-1.7-3-3.2-6.6-3.2
				c-0.6-2.4-1.7-4-3-5.1c1.2-1.4,2.9-2.2,4.8-2.2c3.5,0,6.3,2.8,6.3,6.3C43.4,18.9,42.9,20.4,41.9,21.5z"/>
		</g>
	</g>
	<g>
		<g id="_x31_1">
			<path class="st5" d="M38.6,1.5c0-0.8-0.7-1.5-1.5-1.5s-1.5,0.7-1.5,1.5v3.3c0,0.8,0.7,1.5,1.5,1.5s1.5-0.7,1.5-1.5V1.5z"/>
			<path class="st5" d="M27,5.1c-0.6-0.6-1.5-0.6-2.1,0s-0.6,1.5,0,2.1l2.3,2.3c0.6,0.6,1.5,0.6,2.1,0s0.6-1.5,0-2.1L27,5.1z"/>
			<path class="st5" d="M49.4,7.2c0.6-0.6,0.6-1.5,0-2.1s-1.5-0.6-2.1,0L45,7.4c-0.6,0.6-0.6,1.5,0,2.1s1.5,0.6,2.1,0L49.4,7.2z"/>
			<path class="st5" d="M47,25.2c-0.6-0.6-1.5-0.6-2.1,0s-0.6,1.5,0,2.1l2.3,2.3c0.6,0.6,1.5,0.6,2.1,0s0.6-1.5,0-2.1L47,25.2z"/>
			<path class="st5" d="M52.9,15.9h-3.3c-0.8,0-1.5,0.7-1.5,1.5s0.7,1.5,1.5,1.5h3.3c0.8,0,1.5-0.7,1.5-1.5
				C54.4,16.5,53.8,15.9,52.9,15.9z"/>
			<path class="st5" d="M41.9,25.2c2.7-1.6,4.5-4.6,4.5-7.9c0-5.2-4.1-9.3-9.2-9.3c-3.4,0-6.4,1.9-8,4.7 M37.2,23.6 M31.3,14.9
				c0.9-2.3,3.2-4,5.9-4c3.5,0,6.3,2.8,6.3,6.3c0,2.1-1,4-2.6,5.1c-0.2,0.2-0.5,0.3-0.8,0.5"/>
		</g>
		<path class="st6" d="M32.4,21.7c1.5-0.6,2.9-0.5,3.3-0.5c2.1,0,4.6,1.8,4.6,4.8c0,2.5-2.1,4.6-4.6,4.6h-0.2
			c-0.8,0-1.4,0.6-1.4,1.4s0.6,1.4,1.4,1.4h0.2c4.2,0,7.6-3.4,7.6-7.6c0,0,0-7.5-7.9-7.5c-1.8-7.1-8.4-7.4-10.2-6.9
			c-2-2-5.4-3.5-8.7-3.5c-6.8,0-12.3,5.2-12.8,11.8C1.5,21,0,23.3,0,26.1c0,4.1,3.3,7.4,7.3,7.4h1c0.6,0,1.2-0.7,1.2-1.4
			c0-0.8-0.6-1.4-1.4-1.4H8c-2.7,0-4.8-2-4.8-4.6c0-2.1,1.3-3.9,3.4-4.6c0.2-9.9,9-10.4,9.9-10.4c2.9,0,5.7,1.4,7.6,3.5
			C27.9,13.3,32.9,16.2,32.4,21.7z"/>
	</g>
</g>
</svg>
