<?xml version="1.0" encoding="utf-8"?>
<!-- Generator: Adobe Illustrator 21.1.0, SVG Export Plug-In . SVG Version: 6.00 Build 0)  -->
<svg version="1.1" id="Layer_1" xmlns="http://www.w3.org/2000/svg" xmlns:xlink="http://www.w3.org/1999/xlink" x="0px" y="0px"
	 viewBox="0 0 43.2 33.8" style="enable-background:new 0 0 43.2 33.8;" xml:space="preserve">
<style type="text/css">
	.st0{fill:#7DCFE5;}
	.st1{fill:#D9D9D9;}
</style>
<g id="_x32_6">
	<g>
		<path class="st0" d="M16.7,23.4c0.4-0.7,0.2-1.6-0.5-2c-0.7-0.4-1.6-0.2-2,0.5l-1.7,2.9c-0.4,0.7-0.2,1.6,0.5,2s1.6,0.2,2-0.5
			L16.7,23.4z"/>
		<path class="st0" d="M31.5,23.4c0.4-0.7,0.2-1.6-0.5-2s-1.6-0.2-2,0.5l-1.7,2.9c-0.4,0.7-0.2,1.6,0.5,2s1.6,0.2,2-0.5L31.5,23.4z"
			/>
		<path class="st0" d="M25.4,30.1c0.4-0.7,0.2-1.6-0.5-2s-1.6-0.2-2,0.5l-1.7,2.9c-0.4,0.7-0.2,1.6,0.5,2s1.6,0.2,2-0.5L25.4,30.1z"
			/>
		<path class="st1" d="M18.7,31.3l-0.9-0.5l0.9-0.5c0.3-0.2,0.4-0.6,0.3-0.9c-0.2-0.3-0.6-0.4-0.9-0.3l-0.9,0.5v-1.1
			c0-0.4-0.3-0.7-0.7-0.7s-0.7,0.3-0.7,0.7v1.1l-0.9-0.5c-0.3-0.2-0.7-0.1-0.9,0.3c-0.2,0.3-0.1,0.7,0.3,0.9l0.9,0.5l-0.9,0.5
			c-0.3,0.2-0.4,0.6-0.3,0.9c0.2,0.3,0.6,0.4,0.9,0.2l0.9-0.5V33c0,0.4,0.3,0.7,0.7,0.7s0.7-0.3,0.7-0.7v-1l0.9,0.5
			c0.3,0.2,0.7,0.1,0.9-0.2C19.1,32,19,31.5,18.7,31.3z"/>
		<path class="st1" d="M24.6,24.6l-0.9-0.5l0.9-0.5c0.3-0.2,0.4-0.6,0.3-0.9c-0.2-0.3-0.6-0.4-0.9-0.3l-1,0.5v-1.1
			c0-0.4-0.3-0.7-0.7-0.7s-0.7,0.3-0.7,0.7v1.1l-0.9-0.5c-0.3-0.2-0.7-0.1-0.9,0.3c-0.2,0.3-0.1,0.7,0.2,0.9l0.9,0.5L20,24.6
			c-0.3,0.2-0.4,0.6-0.2,0.9c0.2,0.3,0.6,0.4,0.9,0.3l0.9-0.5v1.1c0,0.4,0.3,0.7,0.7,0.7s0.7-0.3,0.7-0.7v-1.1l0.9,0.5
			c0.3,0.2,0.7,0.1,0.9-0.3C25.1,25.2,24.9,24.8,24.6,24.6z"/>
	</g>
	<path class="st1" d="M32.3,13.8c1.5-0.6,2.9-0.5,3.3-0.5c2.1,0,4.6,1.8,4.6,4.8c0,2.5-2.1,4.6-4.6,4.6h-0.2c-0.8,0-1.4,0.6-1.4,1.4
		s0.6,1.4,1.4,1.4h0.2c4.2,0,7.6-3.4,7.6-7.6c0,0,0-7.5-7.9-7.5C33.5,3.3,26.9,3,25.1,3.5c-2-2-5.4-3.5-8.7-3.5
		C9.7,0,4.2,5.2,3.7,11.8C1.5,13.1,0,15.4,0,18.2c0,4.1,3.3,7.4,7.3,7.4h1c0.6,0,1.2-0.7,1.2-1.4c0-0.8-0.6-1.4-1.4-1.4H8
		c-2.7,0-4.8-2-4.8-4.6c0-2.1,1.3-3.9,3.4-4.6c0.2-9.9,9-10.4,9.9-10.4c2.9,0,5.7,1.4,7.6,3.5C27.8,5.4,32.8,8.3,32.3,13.8z"/>
</g>
</svg>
