<?xml version="1.0" encoding="utf-8"?>
<!-- Generator: Adobe Illustrator 21.1.0, SVG Export Plug-In . SVG Version: 6.00 Build 0)  -->
<svg version="1.1" id="Layer_1" xmlns="http://www.w3.org/2000/svg" xmlns:xlink="http://www.w3.org/1999/xlink" x="0px" y="0px"
	 viewBox="0 0 54.4 46.3" style="enable-background:new 0 0 54.4 46.3;" xml:space="preserve">
<style type="text/css">
	.st0{display:none;}
	.st1{display:inline;fill:#83A5B3;}
	.st2{fill:none;}
	.st3{fill:#7DCFE5;}
	.st4{fill:#FFE169;}
	.st5{fill:#D9D9D9;}
</style>
<g id="_x32_0">
	<g class="st0">
		<path class="st1" d="M38.6,1.5c0-0.8-0.7-1.5-1.5-1.5s-1.5,0.7-1.5,1.5v3.3c0,0.8,0.7,1.5,1.5,1.5s1.5-0.7,1.5-1.5V1.5z"/>
		<path class="st1" d="M27,5.1c-0.6-0.6-1.5-0.6-2.1,0s-0.6,1.5,0,2.1l2.3,2.3c0.6,0.6,1.5,0.6,2.1,0c0.6-0.6,0.6-1.5,0-2.1L27,5.1z
			"/>
		<path class="st1" d="M47.2,29.5c0.6,0.6,1.5,0.6,2.1,0c0.6-0.6,0.6-1.5,0-2.1L47,25c-0.6-0.6-1.5-0.6-2.1,0s-0.6,1.5,0,2.1
			L47.2,29.5z"/>
		<path class="st1" d="M52.9,18.7c0.8,0,1.5-0.7,1.5-1.5c0-0.8-0.7-1.5-1.5-1.5h-3.3c-0.8,0-1.5,0.7-1.5,1.5c0,0.8,0.7,1.5,1.5,1.5
			H52.9z"/>
		<path class="st1" d="M49.4,7.2c0.6-0.6,0.6-1.5,0-2.1s-1.5-0.6-2.1,0L45,7.4c-0.6,0.6-0.6,1.5,0,2.1c0.6,0.6,1.5,0.6,2.1,0
			L49.4,7.2z"/>
		<path class="st1" d="M46.4,17.2c0-5.1-4.1-9.3-9.3-9.3c-3,0-5.7,1.5-7.4,3.7c-1.9-0.7-3.7-0.6-4.6-0.4c-2-2-5.4-3.5-8.7-3.5
			C9.7,7.8,4.2,13,3.7,19.5C1.5,20.9,0,23.2,0,26c0,4.1,3.3,7.4,7.3,7.4h5.2c0.7,0,1.2-0.7,1.2-1.4c0-0.8-0.6-1.4-1.4-1.4H8
			c-2.7,0-4.8-2-4.8-4.6c0-2.1,1.3-3.9,3.4-4.6c0.2-9.9,9-10.4,9.9-10.4c2.9,0,5.7,1.4,7.6,3.5c3.7-1.2,8.8,1.6,8.2,7.2
			c1.5-0.6,2.9-0.5,3.3-0.5c2.1,0,4.6,1.8,4.6,4.8c0,2.5-2.1,4.6-4.6,4.6h-5.2c-0.8,0-1.4,0.6-1.4,1.4s0.6,1.4,1.4,1.4h5.2
			c4.2,0,7.6-3.4,7.6-7.6c0,0,0-0.6-0.2-1.4C45.1,22.6,46.4,20.1,46.4,17.2z M41.9,21.4c-1.1-1.7-3-3.2-6.6-3.2
			c-0.6-2.4-1.7-4-3-5.1c1.2-1.3,2.9-2.2,4.8-2.2c3.5,0,6.3,2.8,6.3,6.3C43.4,18.8,42.9,20.3,41.9,21.4z"/>
	</g>
	<line class="st2" x1="19.1" y1="38.8" x2="19.1" y2="38.8"/>
	<g>
		<path class="st3" d="M21.1,31.1c0.4-0.7,0.2-1.6-0.5-2c-0.7-0.4-1.6-0.2-2,0.5l-5.2,8.8l-2.2,3.7c-0.5,0.9-1.1,1.2-1.9,1.2
			c-1.2,0-2.1-0.9-2.1-2.1c0-1.1,0.8-1.9,1.8-2.1l0,0c0.7-0.1,1.2-1,1-1.7c-0.2-0.8-1-1.3-1.7-1.1l0,0c-2.2,0.6-3.9,2.6-3.9,5
			c0,2.7,2.2,5,5,5c1.5,0,2.8-0.6,3.7-1.6c1.1,1.6,3.2,2.1,4.9,1.2c1.5-0.9,2.2-2.7,1.7-4.3l0,0c-0.2-0.6-0.8-0.9-1.3-0.7
			s-0.9,0.8-0.7,1.3l0,0c0.3,0.7,0,1.5-0.7,1.9s-1.7,0.2-2.1-0.6c-0.3-0.5-0.3-0.9-0.1-1.4C17.1,37.8,21.1,31.1,21.1,31.1z"/>
		<path class="st3" d="M23.3,36L23.3,36c-0.4,0.7-0.4,1.2,0,1.7c0.5,0.8,1.4,1,2.2,0.6c0.7-0.4,1-1.3,0.7-2l0,0
			c-0.2-0.5,0.2-1.2,0.7-1.3c0.6-0.2,1.2,0.1,1.4,0.7l0,0c0.6,1.7-0.1,3.5-1.7,4.5c-1.8,1.1-4.1,0.5-5.2-1.3
			c-0.7-1.2-0.7-2.5-0.1-3.7c0.6-1,3.3-5.7,3.3-5.7c0.3-0.5,1-0.7,1.5-0.4c0.5,0.3,0.7,1,0.4,1.5L23.3,36z"/>
	</g>
</g>
<g id="_x31_7">
	<g class="st0">
		<path class="st1" d="M38.6,1.5c0-0.8-0.7-1.5-1.5-1.5s-1.5,0.7-1.5,1.5v3.3c0,0.8,0.7,1.5,1.5,1.5s1.5-0.7,1.5-1.5V1.5L38.6,1.5z"
			/>
		<path class="st1" d="M27,5.1c-0.6-0.6-1.5-0.6-2.1,0s-0.6,1.5,0,2.1l2.3,2.3c0.6,0.6,1.5,0.6,2.1,0s0.6-1.5,0-2.1L27,5.1z"/>
		<path class="st1" d="M47.2,29.6c0.6,0.6,1.5,0.6,2.1,0s0.6-1.5,0-2.1L47,25.1c-0.6-0.6-1.5-0.6-2.1,0s-0.6,1.5,0,2.1L47.2,29.6z"
			/>
		<path class="st1" d="M52.9,18.8c0.8,0,1.5-0.7,1.5-1.5s-0.7-1.5-1.5-1.5h-3.3c-0.8,0-1.5,0.7-1.5,1.5s0.7,1.5,1.5,1.5H52.9z"/>
		<path class="st1" d="M49.4,7.2c0.6-0.6,0.6-1.5,0-2.1s-1.5-0.6-2.1,0L45,7.4c-0.6,0.6-0.6,1.5,0,2.1s1.5,0.6,2.1,0L49.4,7.2z"/>
		<path class="st1" d="M46.4,17.3c0-5.1-4.1-9.3-9.3-9.3c-3,0-5.7,1.5-7.4,3.7c-1.9-0.7-3.7-0.6-4.6-0.4c-2-2-5.4-3.5-8.7-3.5
			C9.7,7.8,4.2,13,3.7,19.6C1.5,21,0,23.3,0,26.1c0,4.1,3.3,7.4,7.3,7.4h7c0.7,0,1.2-0.7,1.2-1.4c0-0.8-0.6-1.4-1.4-1.4H8
			c-2.7,0-4.8-2-4.8-4.6c0-2.1,1.3-3.9,3.4-4.6c0.2-9.9,9-10.4,9.9-10.4c2.9,0,5.7,1.4,7.6,3.5c3.7-1.2,8.8,1.6,8.2,7.2
			c1.5-0.6,2.9-0.5,3.3-0.5c2.1,0,4.6,1.8,4.6,4.8c0,2.5-2.1,4.6-4.6,4.6h-7.2c-0.8,0-1.4,0.6-1.4,1.4s0.6,1.4,1.4,1.4h7.2
			c4.2,0,7.6-3.4,7.6-7.6c0,0,0-0.6-0.2-1.4C45.1,22.7,46.4,20.2,46.4,17.3z M41.9,21.5c-1.1-1.7-3-3.2-6.6-3.2
			c-0.6-2.4-1.7-4-3-5.1c1.2-1.4,2.9-2.2,4.8-2.2c3.5,0,6.3,2.8,6.3,6.3C43.4,18.9,42.9,20.4,41.9,21.5z"/>
	</g>
</g>
<g>
	<g id="_x31_1">
		<path class="st4" d="M38.6,1.5c0-0.8-0.7-1.5-1.5-1.5s-1.5,0.7-1.5,1.5v3.3c0,0.8,0.7,1.5,1.5,1.5s1.5-0.7,1.5-1.5V1.5z"/>
		<path class="st4" d="M27,5.1c-0.6-0.6-1.5-0.6-2.1,0s-0.6,1.5,0,2.1l2.3,2.3c0.6,0.6,1.5,0.6,2.1,0s0.6-1.5,0-2.1L27,5.1z"/>
		<path class="st4" d="M49.4,7.2c0.6-0.6,0.6-1.5,0-2.1s-1.5-0.6-2.1,0L45,7.4c-0.6,0.6-0.6,1.5,0,2.1s1.5,0.6,2.1,0L49.4,7.2z"/>
		<path class="st4" d="M47,25.2c-0.6-0.6-1.5-0.6-2.1,0s-0.6,1.5,0,2.1l2.3,2.3c0.6,0.6,1.5,0.6,2.1,0s0.6-1.5,0-2.1L47,25.2z"/>
		<path class="st4" d="M52.9,15.9h-3.3c-0.8,0-1.5,0.7-1.5,1.5s0.7,1.5,1.5,1.5h3.3c0.8,0,1.5-0.7,1.5-1.5
			C54.4,16.5,53.8,15.9,52.9,15.9z"/>
		<path class="st4" d="M41.9,25.2c2.7-1.6,4.5-4.6,4.5-7.9c0-5.2-4.1-9.3-9.2-9.3c-3.4,0-6.4,1.9-8,4.7 M31.3,14.9
			c0.9-2.3,3.2-4,5.9-4c3.5,0,6.3,2.8,6.3,6.3c0,2.1-1,4-2.6,5.1c-0.2,0.2-0.5,0.3-0.8,0.5"/>
	</g>
	<path class="st5" d="M32.4,21.7c1.5-0.6,2.9-0.5,3.3-0.5c2.1,0,4.6,1.8,4.6,4.8c0,2.5-2.1,4.6-4.6,4.6h-4.2c-0.8,0-1.4,0.6-1.4,1.4
		s0.6,1.4,1.4,1.4h4.2c4.2,0,7.6-3.4,7.6-7.6c0,0,0-7.5-7.9-7.5c-1.8-7.1-8.4-7.4-10.2-6.9c-2-2-5.4-3.5-8.7-3.5
		c-6.8,0-12.3,5.2-12.8,11.8C1.5,21,0,23.3,0,26.1c0,4.1,3.3,7.4,7.3,7.4h5c0.6,0,1.2-0.7,1.2-1.4c0-0.8-0.6-1.4-1.4-1.4H8
		c-2.7,0-4.8-2-4.8-4.6c0-2.1,1.3-3.9,3.4-4.6c0.2-9.9,9-10.4,9.9-10.4c2.9,0,5.7,1.4,7.6,3.5C27.9,13.3,32.9,16.2,32.4,21.7z"/>
</g>
</svg>
