<?xml version="1.0" encoding="utf-8"?>
<!-- Generator: Adobe Illustrator 21.1.0, SVG Export Plug-In . SVG Version: 6.00 Build 0)  -->
<svg version="1.1" id="Layer_1" xmlns="http://www.w3.org/2000/svg" xmlns:xlink="http://www.w3.org/1999/xlink" x="0px" y="0px"
	 viewBox="0 0 43.2 42.5" style="enable-background:new 0 0 43.2 42.5;" xml:space="preserve">
<style type="text/css">
	.st0{fill:#D9D9D9;}
	.st1{fill:#7DCFE5;}
</style>
<g id="_x32_2">
	<path class="st0" d="M32.4,13.8c1.5-0.6,2.9-0.5,3.3-0.5c2.1,0,4.6,1.8,4.6,4.8c0,2.5-2.1,4.6-4.6,4.6h-0.2c-0.8,0-1.4,0.6-1.4,1.4
		c0,0.8,0.6,1.4,1.4,1.4h0.2c4.2,0,7.6-3.4,7.6-7.6c0,0,0-7.5-7.9-7.5C33.6,3.3,27,3,25.2,3.5c-2-2-5.4-3.5-8.7-3.5
		C9.7,0,4.2,5.2,3.7,11.8C1.5,13.1,0,15.4,0,18.2c0,4.1,3.3,7.4,7.4,7.4h1c0.6,0,1.2-0.7,1.2-1.4c0-0.8-0.6-1.4-1.4-1.4H8
		c-2.7,0-4.8-2-4.8-4.6c0-2.1,1.3-3.9,3.4-4.6c0.2-9.9,9-10.4,9.9-10.4c2.9,0,5.7,1.4,7.6,3.5C27.9,5.4,32.9,8.3,32.4,13.8z"/>
	<g>
		<path class="st1" d="M16.8,23.4c0.4-0.7,0.2-1.6-0.5-2c-0.7-0.4-1.6-0.2-2,0.5l-1.7,2.9c-0.4,0.7-0.2,1.6,0.5,2
			c0.7,0.4,1.6,0.2,2-0.5L16.8,23.4z"/>
		<path class="st1" d="M12.3,30.8c0.4-0.7,0.2-1.6-0.5-2c-0.7-0.4-1.6-0.2-2,0.5L8,32.2c-0.4,0.7-0.2,1.6,0.5,2
			c0.7,0.4,1.6,0.2,2-0.5L12.3,30.8z"/>
		<path class="st1" d="M23.8,23.4c0.4-0.7,0.2-1.6-0.5-2c-0.7-0.4-1.6-0.2-2,0.5l-1.7,2.9c-0.4,0.7-0.2,1.6,0.5,2
			c0.7,0.4,1.6,0.2,2-0.5L23.8,23.4z"/>
		<path class="st1" d="M19.3,31.1c0.4-0.7,0.2-1.6-0.5-2c-0.7-0.4-1.6-0.2-2,0.5L15,32.5c-0.4,0.7-0.2,1.6,0.5,2
			c0.7,0.4,1.6,0.2,2-0.5L19.3,31.1z"/>
		<path class="st1" d="M14.8,38.9c0.4-0.7,0.2-1.6-0.5-2c-0.7-0.4-1.6-0.2-2,0.5l-1.7,2.9c-0.4,0.7-0.2,1.6,0.5,2
			c0.7,0.4,1.6,0.2,2-0.5L14.8,38.9z"/>
		<path class="st1" d="M30.9,23.4c0.4-0.7,0.2-1.6-0.5-2c-0.7-0.4-1.6-0.2-2,0.5l-1.7,2.9c-0.4,0.7-0.2,1.6,0.5,2
			c0.7,0.4,1.6,0.2,2-0.5L30.9,23.4z"/>
		<path class="st1" d="M26.3,31.1c0.4-0.7,0.2-1.6-0.5-2c-0.7-0.4-1.6-0.2-2,0.5l-1.7,2.9c-0.4,0.7-0.2,1.6,0.5,2
			c0.7,0.4,1.6,0.2,2-0.5L26.3,31.1z"/>
	</g>
</g>
</svg>
