<?xml version="1.0" encoding="utf-8"?>
<!-- Generator: Adobe Illustrator 21.1.0, SVG Export Plug-In . SVG Version: 6.00 Build 0)  -->
<svg version="1.1" id="Layer_1" xmlns="http://www.w3.org/2000/svg" xmlns:xlink="http://www.w3.org/1999/xlink" x="0px" y="0px"
	 viewBox="0 0 43.2 37.9" style="enable-background:new 0 0 43.2 37.9;" xml:space="preserve">
<style type="text/css">
	.st0{fill:#7DCFE5;}
	.st1{fill:#D9D9D9;}
</style>
<g id="_x32_8">
	<circle class="st0" cx="24.5" cy="33.3" r="1.5"/>
	<circle class="st0" cx="18.9" cy="36.4" r="1.5"/>
	<path class="st0" d="M19.4,22c0-0.3-0.2-0.5-0.5-0.5s-0.5,0.2-0.5,0.5v10.9c0,0.3,0.2,0.5,0.5,0.5s0.5-0.2,0.5-0.5V22z"/>
	<path class="st0" d="M25,22c0-0.3-0.2-0.5-0.5-0.5S24,21.7,24,22v7.9c0,0.3,0.2,0.5,0.5,0.5s0.5-0.2,0.5-0.5V22z"/>
	<path class="st1" d="M32.3,13.8c1.5-0.6,2.9-0.5,3.3-0.5c2.1,0,4.6,1.8,4.6,4.8c0,2.5-2.1,4.6-4.6,4.6h-6.1c-0.8,0-1.4,0.6-1.4,1.4
		s0.6,1.4,1.4,1.4h6.1c4.2,0,7.6-3.4,7.6-7.6c0,0,0-7.5-7.9-7.5C33.5,3.3,26.9,3,25.1,3.5c-2-2-5.4-3.5-8.7-3.5
		C9.7,0,4.2,5.2,3.7,11.8C1.5,13.1,0,15.4,0,18.2c0,4.1,3.3,7.4,7.4,7.4H14c0.6,0,1.2-0.7,1.2-1.4c0-0.8-0.6-1.4-1.4-1.4H8
		c-2.7,0-4.8-2-4.8-4.6c0-2.1,1.3-3.9,3.4-4.6c0.2-9.9,9-10.4,9.9-10.4c2.9,0,5.7,1.4,7.6,3.5C27.8,5.4,32.8,8.3,32.3,13.8z"/>
</g>
</svg>
