<?xml version="1.0" encoding="utf-8"?>
<!-- Generator: Adobe Illustrator 21.1.0, SVG Export Plug-In . SVG Version: 6.00 Build 0)  -->
<svg version="1.1" id="Layer_1" xmlns="http://www.w3.org/2000/svg" xmlns:xlink="http://www.w3.org/1999/xlink" x="0px" y="0px"
	 viewBox="0 0 43.2 38.4" style="enable-background:new 0 0 43.2 38.4;" xml:space="preserve">
<style type="text/css">
	.st0{fill:none;}
	.st1{fill:#7DCFE5;}
	.st2{fill:#D9D9D9;}
</style>
<g id="_x33_0">
	<line class="st0" x1="19.1" y1="31" x2="19.1" y2="31"/>
	<g>
		<path class="st1" d="M21.1,23.3c0.4-0.7,0.2-1.6-0.5-2c-0.7-0.4-1.6-0.2-2,0.5l-5.2,8.8l-2.2,3.7c-0.5,0.9-1.1,1.2-1.9,1.2
			c-1.2,0-2.1-0.9-2.1-2.1c0-1.1,0.8-1.9,1.8-2.1l0,0c0.7-0.1,1.2-0.9,1-1.7c-0.2-0.8-1-1.2-1.7-1.1l0,0C6.1,29,4.4,31,4.4,33.4
			c0,2.7,2.2,5,5,5c1.5,0,2.8-0.6,3.7-1.6c1.1,1.6,3.2,2.1,4.9,1.2c1.5-0.9,2.2-2.7,1.7-4.3l0,0c-0.2-0.6-0.8-0.9-1.3-0.7
			c-0.5,0.2-0.9,0.8-0.7,1.3l0,0c0.3,0.7,0,1.5-0.7,1.9c-0.7,0.4-1.7,0.2-2.1-0.6c-0.3-0.5-0.3-0.9-0.1-1.4
			C17.1,30,21.1,23.3,21.1,23.3z"/>
		<path class="st1" d="M23.2,28.2L23.2,28.2c-0.4,0.7-0.4,1.2,0,1.7c0.5,0.8,1.4,1,2.2,0.6c0.7-0.4,1-1.3,0.7-2l0,0
			c-0.2-0.5,0.2-1.2,0.7-1.3c0.6-0.2,1.2,0.1,1.4,0.7l0,0c0.6,1.7-0.1,3.5-1.7,4.5c-1.8,1.1-4.1,0.5-5.2-1.3
			c-0.7-1.2-0.7-2.5-0.1-3.7c0.6-1,3.3-5.7,3.3-5.7c0.3-0.5,1-0.7,1.5-0.4c0.5,0.3,0.7,1,0.4,1.5L23.2,28.2z"/>
	</g>
	<path class="st2" d="M32.3,13.9c1.5-0.6,2.9-0.5,3.3-0.5c2.1,0,4.6,1.8,4.6,4.8c0,2.5-2.1,4.6-4.6,4.6h-5.2c-0.8,0-1.4,0.6-1.4,1.4
		c0,0.8,0.6,1.4,1.4,1.4h5.2c4.2,0,7.6-3.4,7.6-7.6c0,0,0-7.5-7.9-7.5c-1.8-7.1-8.4-7.5-10.2-7c-2-2-5.4-3.5-8.7-3.5
		C9.7,0.1,4.2,5.3,3.7,11.9C1.5,13.1,0,15.5,0,18.2c0,4.1,3.3,7.4,7.3,7.4h5.2c0.6,0,1.2-0.7,1.2-1.4c0-0.8-0.6-1.4-1.4-1.4H8
		c-2.7,0-4.8-2-4.8-4.6c0-2.1,1.3-3.9,3.4-4.6c0.3-9.9,9-10.4,9.9-10.4c2.9,0,5.7,1.4,7.6,3.5C27.8,5.5,32.8,8.4,32.3,13.9z"/>
</g>
</svg>
