<?xml version="1.0" encoding="utf-8"?>
<!-- Generator: Adobe Illustrator 21.1.0, SVG Export Plug-In . SVG Version: 6.00 Build 0)  -->
<svg version="1.1" id="Layer_1" xmlns="http://www.w3.org/2000/svg" xmlns:xlink="http://www.w3.org/1999/xlink" x="0px" y="0px"
	 viewBox="0 0 50.9 46" style="enable-background:new 0 0 50.9 46;" xml:space="preserve">
<style type="text/css">
	.st0{fill:#7DCFE5;}
	.st1{display:none;fill:#D9D9D9;}
	.st2{fill:#FFE169;}
	.st3{fill:#D9D9D9;}
</style>
<g id="_x33_8">
	<g>
		<circle class="st0" cx="24.6" cy="41.5" r="1.5"/>
		<circle class="st0" cx="18.9" cy="44.5" r="1.5"/>
		<path class="st0" d="M19.4,30.1c0-0.3-0.2-0.5-0.5-0.5s-0.5,0.2-0.5,0.5V41c0,0.3,0.2,0.5,0.5,0.5s0.5-0.2,0.5-0.5V30.1z"/>
		<path class="st0" d="M25,30.1c0-0.3-0.2-0.5-0.5-0.5S24,29.8,24,30.1V38c0,0.3,0.2,0.5,0.5,0.5S25,38.3,25,38V30.1z"/>
	</g>
	<path class="st1" d="M28.5,11.6c-1.4-0.3-2.7-0.2-3.3,0c-2-2-5.4-3.5-8.8-3.5c-6.7,0-12.2,5.2-12.7,11.8C1.5,21.2,0,23.6,0,26.3
		c0,4.1,3.3,7.4,7.4,7.4H14c0.7,0,1.2-0.7,1.2-1.4c0-0.8-0.6-1.4-1.4-1.4H8c-2.7,0-4.8-2-4.8-4.6c0-2.1,1.3-3.9,3.4-4.6
		c0.2-9.9,9-10.4,9.9-10.4c2.9,0,5.7,1.4,7.6,3.5c3.7-1.2,8.8,1.6,8.2,7.2c1.4-0.6,2.9-0.5,3.3-0.5c2.1,0,4.6,1.8,4.6,4.8
		c0,2.5-2.1,4.6-4.6,4.6h-6.1c-0.8,0-1.4,0.6-1.4,1.4s0.6,1.4,1.4,1.4h6.1c4.2,0,7.6-3.4,7.6-7.6c0,0,0-1-0.4-2.2
		c2.8-0.5,5.3-2,7.1-4.1c2.4-2.7-0.3-2.6-1.2-2.8c-5.4-0.7-12.7-6.3-10-15.2c0.6-1.9-0.5-1.9-1.3-1.7C37.4,0.1,29,2,28.5,11.6z
		 M35.6,3.9c-1.2,6.4,3.9,14.3,11.1,15.1c-1.4,1.1-3.2,1.9-5.1,2.1c-1.1-1.4-3-2.6-6.2-2.6c-0.7-3-2.3-4.7-4-5.8
		C30.9,7.8,34,4.9,35.6,3.9z"/>
</g>
<g>
	<path id="_x30_2" class="st2" d="M41.8,23.9C45,23.6,48,22,50,19.7c2.3-2.7-0.3-2.7-1.3-2.8c-9.9-1.3-11.5-11.1-10-15.1
		c0.5-1.9-0.5-1.9-1.3-1.7c0.1,0-8,2.2-8.7,10.5c-0.1,1.4,0,2.8,0.3,4.1 M33,16.9c-1.1-1.7-1.7-3.8-1.5-6C31.8,8,33.4,5.4,35.7,4
		c-1.1,6.5,3.9,14.3,11,15c-1.8,1.3-4.4,2.3-6.9,2.1c-0.4,0-0.8-0.1-1.2-0.2"/>
	<path class="st3" d="M32.5,22c1.5-0.6,2.9-0.5,3.3-0.5c2.1,0,4.6,1.8,4.6,4.8c0,2.5-2.1,4.6-4.6,4.6h-6.5c-0.8,0-1.4,0.6-1.4,1.4
		s0.6,1.4,1.4,1.4h6.5c4.2,0,7.6-3.4,7.6-7.6c0,0,0-7.5-7.9-7.5c-1.8-7.1-8.4-7.4-10.2-6.9c-2-2-5.4-3.5-8.7-3.5
		C9.8,8.2,4.3,13.4,3.8,20c-2.2,1.3-3.7,3.6-3.7,6.4c0,4.1,3.3,7.4,7.3,7.4h7c0.6,0,1.2-0.7,1.2-1.4c0-0.8-0.6-1.4-1.4-1.4H8.1
		c-2.7,0-4.8-2-4.8-4.6c0-2.1,1.3-3.9,3.4-4.6c0.2-9.9,9-10.4,9.9-10.4c2.9,0,5.7,1.4,7.6,3.5C28,13.6,33,16.5,32.5,22z"/>
</g>
</svg>
