<?xml version="1.0" encoding="utf-8"?>
<!-- Generator: Adobe Illustrator 21.1.0, SVG Export Plug-In . SVG Version: 6.00 Build 0)  -->
<svg version="1.1" id="Layer_1" xmlns="http://www.w3.org/2000/svg" xmlns:xlink="http://www.w3.org/1999/xlink" x="0px" y="0px"
	 viewBox="0 0 47.7 24.8" style="enable-background:new 0 0 47.7 24.8;" xml:space="preserve">
<style type="text/css">
	.st0{fill:#7DCFE5;}
</style>
<g id="_x31_0">
	<path class="st0" d="M9.2,17.8c1.1,0,2-0.9,2-2s-0.9-2-2-2H2c-1.1,0-2,0.9-2,2s0.9,2,2,2H9.2z"/>
	<path class="st0" d="M23.9,17.8c1.1,0,2-0.9,2-2s-0.9-2-2-2h-7.3c-1.1,0-2,0.9-2,2s0.9,2,2,2H23.9z"/>
	<path class="st0" d="M38.5,17.8c1.1,0,2-0.9,2-2s-0.9-2-2-2h-7.3c-1.1,0-2,0.9-2,2s0.9,2,2,2H38.5z"/>
	<path class="st0" d="M9.2,4c1.1,0,2-0.9,2-2s-0.9-2-2-2H2C0.9,0.1,0,1,0,2.1s0.9,2,2,2C2,4,9.2,4,9.2,4z"/>
	<path class="st0" d="M23.9,4c1.1,0,2-0.9,2-2s-0.9-2-2-2h-7.3c-1.1,0-2,0.9-2,2s0.9,2,2,2H23.9z"/>
	<path class="st0" d="M38.5,4c1.1,0,2-0.9,2-2s-0.9-2-2-2h-7.3c-1.1,0-2,0.9-2,2s0.9,2,2,2H38.5z"/>
	<path class="st0" d="M16.5,24.8c1.1,0,2-0.9,2-2s-0.9-2-2-2H9.2c-1.1,0-2,0.9-2,2s0.9,2,2,2H16.5z"/>
	<path class="st0" d="M31.1,24.8c1.1,0,2-0.9,2-2s-0.9-2-2-2h-7.3c-1.1,0-2,0.9-2,2s0.9,2,2,2H31.1z"/>
	<path class="st0" d="M45.7,24.8c1.1,0,2-0.9,2-2s-0.9-2-2-2h-7.3c-1.1,0-2,0.9-2,2s0.9,2,2,2H45.7z"/>
	<path class="st0" d="M16.5,11c1.1,0,2-0.9,2-2s-0.9-2-2-2H9.2c-1.1,0-2,0.9-2,2s0.9,2,2,2H16.5z"/>
	<path class="st0" d="M31.1,11c1.1,0,2-0.9,2-2s-0.9-2-2-2h-7.3c-1.1,0-2,0.9-2,2s0.9,2,2,2H31.1z"/>
	<path class="st0" d="M45.7,11c1.1,0,2-0.9,2-2s-0.9-2-2-2h-7.3c-1.1,0-2,0.9-2,2s0.9,2,2,2H45.7z"/>
</g>
</svg>
